<svg width="16" height="18" fill="none" xmlns="http://www.w3.org/2000/svg"><path d="M12.375 3.625a2 2 0 00-2.781 0l-5.75 5.75a3.395 3.395 0 000 4.781 3.395 3.395 0 004.781 0l4.75-4.75a.85.85 0 011.219 0 .85.85 0 010 1.219l-4.75 4.75c-2 2-5.219 2-7.219 0s-2-5.219 0-7.219l5.75-5.75a3.641 3.641 0 015.219 0 3.641 3.641 0 010 5.219l-5.5 5.5a2.245 2.245 0 01-3.219 0 2.245 2.245 0 010-3.219l4.5-4.5a.85.85 0 011.219 0 .85.85 0 010 1.219l-4.5 4.5a.613.613 0 000 .781.613.613 0 00.781 0l5.5-5.5a2 2 0 000-2.781z" fill="#fff"/></svg>