<svg width="142" height="42" fill="none" xmlns="http://www.w3.org/2000/svg"><path fill-rule="evenodd" clip-rule="evenodd" d="M33.324 7.61a3.444 3.444 0 00-4.621-1.505 3.417 3.417 0 00-1.496 4.608 3.445 3.445 0 004.622 1.504 3.417 3.417 0 001.495-4.608zM9.849 32.72c.863 1.687 3.128 2.261 5.059 1.281 1.93-.98 2.795-3.142 1.931-4.83-.863-1.687-3.128-2.26-5.058-1.281-1.93.98-2.796 3.141-1.932 4.83zm19.286-.235a5.421 5.421 0 00-1.81 8.18c-.885.17-1.774.282-2.661.333a3.932 3.932 0 00-.319-1.657c0-.004 0-.003.002-.006a6.625 6.625 0 013.23-8.667l-.003-.004a5.163 5.163 0 002.972-3.197c.885-2.73-.617-5.666-3.355-6.559a5.185 5.185 0 00-4.344.516l-.002-.004a6.64 6.64 0 01-5.246.478 6.677 6.677 0 01-3.693-2.97l-.005-.002a3.941 3.941 0 00-2.164-1.728 3.933 3.933 0 00-4.965 2.52 3.949 3.949 0 005.303 4.846h.006l.044-.017.041-.015.015-.006.029-.01a6.645 6.645 0 014.597-.178c.043.015.083.034.125.049a7.319 7.319 0 014.355 3.658c.068.133.122.27.182.404a7.262 7.262 0 01.071 5.679 6.572 6.572 0 01-2.124 2.868c-.053.044-.108.086-.162.128l-.12.085a7.088 7.088 0 01-.45.312c-.073.045-.15.084-.223.127a3.898 3.898 0 00-1.49 2.005 4.046 4.046 0 00-.083.305A20.631 20.631 0 015.035 29.764C.5 20.898 3.001 10.31 10.482 4.354c.072.479.217.954.45 1.41a4.592 4.592 0 006.16 2.007A4.555 4.555 0 0019.08 1.63 4.582 4.582 0 0018.268.5a20.48 20.48 0 012.73-.5c.052.33.144.652.274.957v.006a6.63 6.63 0 01.241 4.719 6.615 6.615 0 01-3.471 3.947l.002.004a5.168 5.168 0 00-2.973 3.197c-.884 2.73.618 5.667 3.356 6.559a5.187 5.187 0 004.344-.517l.002.005a6.644 6.644 0 015.247-.477 6.676 6.676 0 013.69 2.969l.006.002a3.93 3.93 0 002.164 1.727 3.933 3.933 0 004.965-2.52 3.949 3.949 0 00-5.303-4.844l-.006-.002-.017.007-.036.014-.055.021-.02.008a6.642 6.642 0 01-4.598.176c-.043-.013-.082-.033-.124-.048a7.318 7.318 0 01-4.355-3.658c-.069-.133-.123-.27-.182-.404a7.255 7.255 0 01-.071-5.679A6.576 6.576 0 0126.2 3.301c.053-.044.108-.085.163-.128l.12-.085c.146-.108.295-.214.45-.312.072-.045.148-.084.222-.127A3.894 3.894 0 0028.647.644l.018-.065C34.118 2.043 38.96 5.72 41.733 11.141c4.41 8.619 2.165 18.862-4.836 24.898a5.44 5.44 0 00-.432-1.165c-1.37-2.679-4.652-3.749-7.33-2.39z" fill="#fff"/><path d="M2.269 30.766A20.63 20.63 0 0014.12 40.96l2.765-1.002A20.631 20.631 0 015.033 29.764L2.27 30.766z" fill="#fff"/><path d="M7.084 33.721c-.864-1.688.001-3.85 1.932-4.83l2.764-1.001c-1.93.98-2.795 3.141-1.932 4.83l-2.764 1zm-.538-8.034a3.949 3.949 0 01-2.54-4.967l2.764-1.002a3.949 3.949 0 002.54 4.966l-2.764 1.003z" fill="#fff"/><path d="M7.083 33.721c.863 1.688 3.128 2.262 5.058 1.283l1.74-.63c.345-.08.69-.203 1.025-.373l-1.026.372c-1.648.375-3.319-.26-4.032-1.654l-2.765 1.002zM4.008 20.72a3.915 3.915 0 012.399-2.48l2.763-1.002a3.915 3.915 0 00-2.398 2.48L4.008 20.72z" fill="#fff"/><path d="M7.717 5.357C.235 11.312-2.266 21.9 2.27 30.767l2.764-1.003C.5 20.898 3 10.31 10.481 4.354L7.717 5.357zm-1.17 20.33a3.927 3.927 0 002.763-.121l2.362-.857c.137-.041.271-.09.402-.145l-.402.145a3.918 3.918 0 01-2.36-.025l-2.765 1.003zm7.578 15.273c.024-.102.05-.203.082-.305l2.764-1.002a4.02 4.02 0 00-.081.305l-2.765 1.002z" fill="#fff"/><path d="M9.312 25.566h-.005l2.764-1.002h.006l-2.765 1.002zm.048-.016l-.045.016 2.765-1.002.044-.017-2.765 1.002z" fill="#fff"/><path d="M9.398 25.536l-.037.013 2.765-1.002.042-.015-2.765 1.002-.005.002zm.016-.008l-.015.006 2.765-1.002.014-.006-2.764 1.002z" fill="#fff"/><path d="M9.444 25.517l-.029.011 2.765-1.002.029-.01-2.765 1.001zm4.76 15.138a3.897 3.897 0 011.491-2.005l2.765-1.002a3.898 3.898 0 00-1.491 2.005l-2.765 1.002zM10.04 28.52c1.648-.375 3.318.259 4.032 1.654l2.765-1.002c-.864-1.688-3.128-2.262-5.059-1.282l-1.738.63a4.446 4.446 0 00-1.026.372l1.026-.372zM6.403 18.24a3.932 3.932 0 012.567-.04l2.764-1.002a3.932 3.932 0 00-2.566.04L6.403 18.24z" fill="#fff"/><path d="M14.074 30.174c.864 1.687-.001 3.85-1.931 4.83L14.907 34c1.93-.98 2.795-3.142 1.932-4.83l-2.765 1.003zm1.621 8.476c.074-.043.15-.082.222-.127l2.765-1.002c-.072.045-.148.084-.222.127l-2.765 1.002zm.219-.127c.156-.098.304-.204.45-.312l2.765-1.002a7.201 7.201 0 01-.45.312l-2.765 1.002zM9.971 25.327a7.04 7.04 0 00-.527.19l.527-.19a6.628 6.628 0 014.07.013l2.765-1.002a6.646 6.646 0 00-4.597.177l-2.238.812z" fill="#fff"/><path d="M16.368 38.211c.04-.027.08-.056.12-.085l2.765-1.002-.12.085-2.765 1.002z" fill="#fff"/><path d="M16.488 38.126c.054-.042.11-.084.163-.128l2.764-1.002c-.053.044-.108.086-.162.128l-2.765 1.002zM8.969 18.2a3.94 3.94 0 012.164 1.728l2.765-1.002a3.941 3.941 0 00-2.165-1.727L8.97 18.2zm2.168 1.728l.005.002 2.764-1.002-.005-.002-2.764 1.002z" fill="#fff"/><path d="M16.652 37.998a6.572 6.572 0 002.124-2.868l2.765-1.002a6.572 6.572 0 01-2.124 2.868l-2.765 1.002zm-2.484-12.609c-.043-.015-.082-.034-.125-.049l2.765-1.002c.043.015.082.034.125.049l-2.765 1.002zM11.14 19.93a6.677 6.677 0 003.692 2.97l2.765-1.002a6.677 6.677 0 01-3.692-2.97l-2.764 1.002zM8.164 6.766a4.566 4.566 0 01-.45-1.41l2.765-1.002c.072.479.217.954.45 1.41L8.164 6.766z" fill="#fff"/><path d="M17.7 27.785a7.32 7.32 0 00-3.535-2.396l2.765-1.002a7.32 7.32 0 013.535 2.395L17.7 27.785zm3.88 12.558c.221.517.333 1.081.318 1.657l2.764-1.002a3.934 3.934 0 00-.318-1.657l-2.765 1.002zm0-.006l-.002.006 2.765-1.002.001-.006-2.764 1.002zm-2.809-5.207a7.262 7.262 0 00-.07-5.678l2.764-1.002a7.261 7.261 0 01.071 5.678l-2.765 1.002zm2.567.487a6.625 6.625 0 00.242 4.72l2.765-1.003a6.624 6.624 0 01-.243-4.72l-2.764 1.003z" fill="#fff"/><path d="M18.518 29.047a7.343 7.343 0 00-.82-1.262l2.765-1.003c.31.385.585.806.82 1.263l-2.765 1.002zm-2.856-8.656c-2.738-.892-4.24-3.829-3.356-6.559l2.765-1.002c-.884 2.73.618 5.667 3.355 6.559l-2.764 1.002zm3.04 9.061c-.06-.135-.115-.271-.183-.404l2.765-1.003c.068.133.123.27.182.405l-2.764 1.002zM21.896 42a20.336 20.336 0 002.661-.333l2.765-1.002a20.26 20.26 0 01-2.661.333L21.896 42zM8.165 6.766a4.592 4.592 0 006.16 2.007l1.713-.62a4.58 4.58 0 001.051-.382l-1.051.381a4.597 4.597 0 01-5.108-2.388L8.165 6.766zM14.83 22.9a6.64 6.64 0 004.339-.07l2.761-1.002a6.64 6.64 0 01-4.335.07L14.83 22.9z" fill="#fff"/><path d="M24.558 41.667a5.47 5.47 0 01-.557-.869l2.764-1.002c.16.313.349.602.557.87l-2.764 1.001zM12.305 13.832a5.167 5.167 0 012.972-3.197l2.765-1.002a5.168 5.168 0 00-2.973 3.197l-2.764 1.002zm6.738 6.506a5.186 5.186 0 01-3.385.053l2.765-1.002a5.185 5.185 0 003.384-.054l-2.764 1.003zM24.81 31.67a6.615 6.615 0 00-3.472 3.947l2.764-1.002a6.614 6.614 0 013.473-3.947L24.81 31.67zm-5.64-8.84c.312-.114.616-.25.908-.408l2.764-1.002a6.765 6.765 0 01-.908.407L19.17 22.83z" fill="#fff"/><path d="M15.277 10.635l-.002-.004L18.04 9.63l.002.004-2.765 1.002zM24 40.798a5.421 5.421 0 012.367-7.311l2.765-1.003a5.421 5.421 0 00-2.368 7.312L24 40.798zm-3.92-18.376l.001.004 2.765-1.002-.002-.004-2.765 1.002zm-.077-2.547c-.302.186-.623.34-.957.462l2.762-1.002c.335-.12.657-.276.96-.462l-2.765 1.002z" fill="#fff"/><path d="M20.08 22.426c.303-.186.624-.341.959-.462l2.762-1.002a5.24 5.24 0 00-.956.462l-2.765 1.002zm-.077-2.547l-.002-.004 2.764-1.002.003.004-2.765 1.002zM16.314 2.631c1.152 2.25.261 5-1.989 6.142l2.765-1.002a4.555 4.555 0 001.989-6.142L16.314 2.63zm8.494 29.035l.002.004 2.765-1.002-.003-.004-2.764 1.002z" fill="#fff"/><path d="M20.913 19.472c-.312.113-.615.25-.906.407l2.764-1.002c.292-.158.595-.294.906-.407l-2.764 1.002zm-5.636-8.841a6.614 6.614 0 003.472-3.947l2.765-1.002a6.614 6.614 0 01-3.472 3.947l-2.765 1.002zm5.763 11.333a5.185 5.185 0 013.385-.054l2.765-1.002a5.185 5.185 0 00-3.385.053l-2.765 1.003zM15.5 1.503c.319.324.594.702.812 1.128l2.765-1.002A4.585 4.585 0 0018.264.5L15.5 1.503zM27.782 28.47a5.163 5.163 0 01-2.972 3.196l2.764-1.002a5.163 5.163 0 002.972-3.197l-2.764 1.002z" fill="#fff"/><path d="M25.252 19.402a6.644 6.644 0 00-4.338.07l2.762-1.002a6.643 6.643 0 014.34-.07l-2.764 1.002zm-7.019-18.4a20.48 20.48 0 00-2.731.501L18.267.501c.905-.23 1.816-.398 2.73-.501l-2.764 1.002zm3.149 11.848c.059.135.113.27.181.404l2.765-1.002c-.068-.133-.123-.27-.182-.404l-2.764 1.002zm3.043 9.06c2.738.893 4.24 3.829 3.355 6.56l2.765-1.003c.884-2.73-.618-5.666-3.356-6.559l-2.764 1.002zm-2.86-8.656c.234.457.51.878.82 1.262l2.765-1.002a7.348 7.348 0 01-.82-1.262l-2.765 1.002zm-2.818-6.57a6.63 6.63 0 00-.242-4.72l2.764-1a6.63 6.63 0 01.243 4.719l-2.765 1.002zm8.873 26.349a5.47 5.47 0 016.08 2.843l2.764-1.002c-1.37-2.679-4.652-3.749-7.33-2.39l-1.514.55a5.442 5.442 0 00-1.25.453l1.25-.454z" fill="#fff"/><path d="M21.314 7.171a7.256 7.256 0 00.071 5.679l2.765-1.002a7.255 7.255 0 01-.071-5.679l-2.765 1.002zm-2.808-5.206v-.006L21.272.957v.006l-2.765 1.002z" fill="#fff"/><path d="M18.507 1.959a3.971 3.971 0 01-.274-.957L20.998 0c.051.33.143.652.273.957l-2.764 1.002zm3.877 12.557a7.318 7.318 0 003.535 2.397l2.765-1.002a7.317 7.317 0 01-3.536-2.397l-2.764 1.002zm6.562 7.854a6.676 6.676 0 00-3.691-2.968l2.764-1.003a6.676 6.676 0 013.692 2.97l-2.765 1.002z" fill="#fff"/><path d="M25.919 16.913c.042.014.081.034.124.047l2.765-1.002c-.043-.013-.083-.033-.125-.048l-2.764 1.003zm-2.485-12.61a6.576 6.576 0 00-2.123 2.869l2.764-1.003a6.575 6.575 0 012.123-2.868l-2.764 1.002zm10.267 31.573c.194.379.334.77.432 1.165l2.765-1.002a5.44 5.44 0 00-.432-1.165L33.7 35.876zm-4.753-13.503l-.005-.002 2.765-1.002.005.002-2.765 1.002zm2.167 1.727a3.938 3.938 0 01-2.165-1.727l2.765-1.002a3.94 3.94 0 002.164 1.727l-2.764 1.003zM24.44 11.715a3.417 3.417 0 011.496-4.607L28.7 6.105a3.417 3.417 0 00-1.495 4.608l-2.764 1.002z" fill="#fff"/><path d="M23.599 4.176c-.055.042-.11.083-.163.127L26.2 3.3c.053-.044.109-.085.163-.128L23.6 4.176z" fill="#fff"/><path d="M23.598 4.175l2.764-1.002c.04-.029.08-.058.12-.085L23.717 4.09l-.12.085zm2.445 12.785a6.64 6.64 0 004.597-.176l2.238-.811c.178-.057.354-.12.526-.191l-.526.19a6.623 6.623 0 01-4.07-.014l-2.765 1.002zm-1.603-5.244a3.445 3.445 0 004.621 1.503l1.975-.716a3.44 3.44 0 00.79-.286l-.79.286c-1.5.343-3.1-.358-3.832-1.79l-2.765 1.003z" fill="#fff"/><path d="M24.17 3.778a7.43 7.43 0 00-.451.312l2.764-1.002a7.85 7.85 0 01.451-.312L24.17 3.778z" fill="#fff"/><path d="M24.392 3.651c-.073.043-.15.082-.221.127l2.764-1.002c.072-.045.148-.084.222-.127l-2.765 1.002zM33.68 24.06a3.932 3.932 0 01-2.566.04l2.765-1.002c.87.284 1.768.25 2.566-.04l-2.764 1.003zm-7.8-22.414a3.895 3.895 0 01-1.49 2.005l2.764-1.002A3.894 3.894 0 0028.645.644l-2.764 1.002zm4.762 15.138l.02-.008 2.765-1.002a.74.74 0 01-.02.008l-2.765 1.002zm.018-.008l.054-.02 2.765-1.003a8.945 8.945 0 01-.055.021l-2.765 1.002z" fill="#fff"/><path d="M30.717 16.755l.036-.014 2.764-1.002-.036.014-2.764 1.002z" fill="#fff"/><path d="M30.753 16.741l.017-.006 2.764-1.003-.017.007-2.764 1.002z" fill="#fff"/><path d="M30.771 16.735l.006.001 2.765-1.002-.006-.002-2.765 1.003zM25.897 1.582c-.006.02-.01.042-.017.064L28.644.644l.018-.065-2.765 1.003zm.83 5.239a3.447 3.447 0 013.83 1.79l2.765-1.002a3.444 3.444 0 00-4.62-1.503l-1.975.715a3.442 3.442 0 00-.79.287l.79-.287z" fill="#fff"/><path d="M30.557 8.612a3.418 3.418 0 01-1.494 4.607l2.764-1.002a3.418 3.418 0 001.495-4.608l-2.765 1.003zm.624 7.977a3.917 3.917 0 012.357.026l2.765-1.003a3.925 3.925 0 00-2.763.122l-2.359.855c-.138.042-.273.09-.406.147l.406-.147zm4.897 4.991a3.914 3.914 0 01-2.397 2.48l2.763-1.002a3.914 3.914 0 002.398-2.48l-2.764 1.003z" fill="#fff"/><path d="M34.134 37.04c7-6.035 9.245-16.278 4.835-24.898l2.765-1.002c4.41 8.62 2.165 18.863-4.836 24.898l-2.764 1.003z" fill="#fff"/><path d="M33.537 16.615a3.949 3.949 0 012.54 4.966l2.765-1.002a3.949 3.949 0 00-2.54-4.967l-2.765 1.003zm5.43-4.472c-2.773-5.42-7.615-9.098-13.07-10.561L28.663.579C34.118 2.043 38.96 5.72 41.733 11.14l-2.765 1.003z" fill="#fff"/><path fill-rule="evenodd" clip-rule="evenodd" d="M30.555 8.612a3.444 3.444 0 00-4.621-1.504 3.417 3.417 0 00-1.495 4.608 3.445 3.445 0 004.621 1.503 3.418 3.418 0 001.495-4.607zM7.079 33.722c.863 1.687 3.128 2.261 5.058 1.282 1.93-.98 2.795-3.143 1.932-4.83-.863-1.688-3.128-2.261-5.058-1.282-1.93.98-2.795 3.141-1.932 4.83zm19.288-.235a5.421 5.421 0 00-1.811 8.18 20.32 20.32 0 01-2.661.333 3.931 3.931 0 00-.318-1.657l.001-.006a6.625 6.625 0 013.23-8.667l-.003-.004a5.163 5.163 0 002.973-3.197c.884-2.73-.618-5.666-3.356-6.559a5.198 5.198 0 00-4.344.516l-.002-.004a6.677 6.677 0 01-8.938-2.491l-.005-.003a3.942 3.942 0 00-2.164-1.727 3.932 3.932 0 00-4.966 2.52 3.949 3.949 0 005.304 4.845h.006l.128-.049a6.646 6.646 0 014.598-.177c.043.015.082.034.125.049a7.32 7.32 0 014.354 3.659c.068.133.123.269.182.404a7.262 7.262 0 01.072 5.678 6.571 6.571 0 01-2.124 2.868c-.053.044-.109.086-.163.128-.04.029-.08.058-.12.085a7.117 7.117 0 01-.45.312c-.072.045-.149.084-.222.127a3.898 3.898 0 00-1.492 2.005 4.045 4.045 0 00-.081.305A20.63 20.63 0 012.267 30.766C-2.27 21.9.232 11.312 7.714 5.356c.071.479.216.955.45 1.41a4.591 4.591 0 006.159 2.007 4.555 4.555 0 001.989-6.142 4.587 4.587 0 00-.812-1.128 20.314 20.314 0 012.73-.5c.052.33.143.651.274.956l-.001.006a6.63 6.63 0 01.242 4.719 6.616 6.616 0 01-3.472 3.947l.002.004a5.168 5.168 0 00-2.972 3.197c-.885 2.73.618 5.667 3.355 6.56a5.197 5.197 0 004.344-.517l.002.004a6.676 6.676 0 018.938 2.492l.005.002c.474.79 1.22 1.42 2.165 1.727a3.931 3.931 0 004.965-2.52 3.949 3.949 0 00-5.304-4.844l-.006-.002a6.444 6.444 0 01-.128.05 6.642 6.642 0 01-4.597.176c-.043-.013-.083-.033-.125-.047a7.318 7.318 0 01-4.355-3.66c-.068-.132-.123-.268-.181-.403a7.256 7.256 0 01-.072-5.678 6.577 6.577 0 012.123-2.87c.053-.043.109-.084.163-.126.04-.03.08-.058.12-.086a7.47 7.47 0 01.451-.312c.071-.045.148-.084.221-.127a3.894 3.894 0 001.491-2.005c.008-.022.012-.043.018-.064 5.455 1.463 10.297 5.14 13.07 10.56 4.409 8.62 2.165 18.863-4.836 24.899a5.44 5.44 0 00-.433-1.164c-1.37-2.68-4.652-3.75-7.33-2.39z" fill="#F7FF62"/><path d="M61.131 33.264c-1.716 0-3.223-.33-4.521-.99-1.298-.682-2.299-1.628-3.003-2.838-.704-1.21-1.056-2.607-1.056-4.191v-7.623c0-1.584.352-2.981 1.056-4.191.704-1.21 1.705-2.145 3.003-2.805 1.298-.66 2.805-.99 4.521-.99 1.694 0 3.179.319 4.455.957 1.298.616 2.299 1.507 3.003 2.673.726 1.144 1.089 2.475 1.089 3.993 0 .198-.132.319-.396.363l-3.861.231h-.066c-.22 0-.33-.121-.33-.363 0-1.166-.363-2.101-1.089-2.805-.704-.704-1.639-1.056-2.805-1.056-1.188 0-2.145.352-2.871 1.056-.704.704-1.056 1.639-1.056 2.805v7.953c0 1.144.352 2.068 1.056 2.772.726.704 1.683 1.056 2.871 1.056 1.166 0 2.101-.352 2.805-1.056.726-.704 1.089-1.628 1.089-2.772 0-.242.132-.363.396-.363l3.861.165c.11 0 .198.033.264.099.088.066.132.143.132.231 0 1.518-.363 2.86-1.089 4.026-.704 1.166-1.705 2.068-3.003 2.706-1.276.638-2.761.957-4.455.957zm19.153 0c-1.848 0-3.432-.484-4.752-1.452-1.32-.968-2.222-2.288-2.706-3.96-.308-1.034-.462-2.156-.462-3.366 0-1.298.154-2.464.462-3.498.506-1.628 1.42-2.904 2.74-3.828 1.32-.924 2.903-1.386 4.751-1.386 1.804 0 3.344.462 4.62 1.386 1.276.902 2.178 2.167 2.706 3.795a11.3 11.3 0 01.528 3.465c0 1.188-.154 2.299-.462 3.333-.484 1.716-1.386 3.069-2.706 4.059-1.298.968-2.87 1.452-4.719 1.452zm0-3.993c.726 0 1.342-.22 1.848-.66.506-.44.87-1.045 1.09-1.815a9.515 9.515 0 00.263-2.31c0-.924-.088-1.705-.264-2.343-.242-.748-.616-1.331-1.122-1.749-.506-.418-1.122-.627-1.848-.627-.748 0-1.375.209-1.88.627-.485.418-.837 1.001-1.057 1.749-.176.528-.264 1.309-.264 2.343 0 .99.077 1.76.231 2.31.22.77.583 1.375 1.09 1.815.527.44 1.165.66 1.913.66zM91.558 33a.483.483 0 01-.297-.099.483.483 0 01-.099-.297V10.296c0-.11.033-.198.1-.264a.41.41 0 01.296-.132h3.861c.11 0 .198.044.264.132a.314.314 0 01.132.264v22.308a.41.41 0 01-.132.297.357.357 0 01-.264.099h-3.86zm8.057 0a.483.483 0 01-.297-.099.483.483 0 01-.1-.297V10.296c0-.11.034-.198.1-.264a.41.41 0 01.297-.132h3.861c.11 0 .198.044.264.132a.314.314 0 01.132.264v22.308a.41.41 0 01-.132.297.357.357 0 01-.264.099h-3.861zm14.426-17.226c1.43 0 2.706.253 3.828.759 1.122.484 1.991 1.155 2.607 2.013.638.858.957 1.815.957 2.871v11.187a.41.41 0 01-.132.297.357.357 0 01-.264.099h-3.861a.483.483 0 01-.297-.099.483.483 0 01-.099-.297v-1.089c0-.066-.022-.11-.066-.132-.044-.022-.088 0-.132.066-.924 1.21-2.409 1.815-4.455 1.815-1.716 0-3.102-.418-4.158-1.254-1.056-.836-1.584-2.068-1.584-3.696 0-1.694.594-3.003 1.782-3.927 1.188-.946 2.882-1.419 5.082-1.419h3.366c.11 0 .165-.055.165-.165v-.726c0-.726-.22-1.287-.66-1.683-.44-.418-1.1-.627-1.98-.627-.682 0-1.254.121-1.716.363-.44.242-.726.583-.858 1.023-.066.242-.209.352-.429.33l-3.993-.528c-.264-.044-.385-.143-.363-.297.088-.924.451-1.76 1.089-2.508.66-.748 1.518-1.331 2.574-1.749 1.078-.418 2.277-.627 3.597-.627zm-.66 14.025c.946 0 1.749-.253 2.409-.759.66-.506.99-1.155.99-1.947v-1.188c0-.11-.055-.165-.165-.165h-2.376c-.99 0-1.771.187-2.343.561-.55.374-.825.902-.825 1.584 0 .594.209 1.067.627 1.419.418.33.979.495 1.683.495zm26.344-9.438c.418 1.144.627 2.508.627 4.092 0 1.518-.187 2.849-.561 3.993-.506 1.496-1.32 2.673-2.442 3.531-1.1.858-2.409 1.287-3.927 1.287-1.606 0-2.871-.605-3.795-1.815-.044-.044-.088-.055-.132-.033-.044 0-.066.033-.066.099v1.089a.41.41 0 01-.132.297.357.357 0 01-.264.099h-3.861a.483.483 0 01-.297-.099.483.483 0 01-.099-.297V10.296c0-.11.033-.198.099-.264a.41.41 0 01.297-.132h3.861c.11 0 .198.044.264.132a.314.314 0 01.132.264v7.062c0 .066.022.11.066.132.044.022.088 0 .132-.066.858-1.1 2.079-1.65 3.663-1.65 1.606 0 2.948.418 4.026 1.254 1.1.814 1.903 1.925 2.409 3.333zm-4.884 7.491c.462-.836.693-1.936.693-3.3 0-1.518-.264-2.684-.792-3.498-.528-.858-1.309-1.287-2.343-1.287-.968 0-1.705.429-2.211 1.287-.484.836-.726 1.991-.726 3.465 0 1.474.22 2.585.66 3.333.528.946 1.298 1.419 2.31 1.419 1.078 0 1.881-.473 2.409-1.419z" fill="#fff"/></svg>