<svg xmlns="http://www.w3.org/2000/svg" viewBox="0 0 45 42"><path d="M28.22 40.73c-1.09.4-2.2.71-3.36.91-2.34-3.53-.58-7.13 2-8.37.73-.34 1.5-.52 2.27-.53-1.97 1.53-2.76 4.91-.91 7.98zm-8.61-3.6c-.73.52-1.91 2.77-2.64 4.47-1.56-.29-3.07-.77-4.48-1.41.61.26 1.22.49 1.84.68.31-1.26 1.21-2.01 2.23-2.73 3.16-2.22 3.96-6.66 1.89-9.95-1.72-2.71-5.55-4.44-9.01-2.95-1.21.52-2.42.45-3.56-.21-1.42-.81-2.21-2.45-1.98-4 .26-1.73 1.46-3.02 3.18-3.39.39-.08.77-.11 1.15-.07-.68.62-1.13 1.46-1.28 2.44-.23 1.54.56 3.18 1.98 4 1.15.66 2.36.73 3.56.21 3.46-1.49 7.3.24 9.01 2.95 2.07 3.29 1.27 7.73-1.89 9.95zm15.9-14.22c-1 .92-2.47 1.28-3.84.87-1.05-.3-1.79-.97-2.38-1.89-1.32-2.08-3.22-3.17-5.7-3.25-.24-.01-.49 0-.73.03.02 0 .03-.01.05-.02 1.18-.6 2.38-1.06 3.73-1.02 2.49.07 4.39 1.17 5.7 3.25.59.91 1.33 1.58 2.38 1.89.26.08.53.12.79.14zM15.64 7.36c-.36.34-.75.63-1.16.83-2.08 1-5.73.47-6.71-3.39-.15.11-.3.23-.46.36l.15-.21c.91-.78 1.89-1.47 2.93-2.07.95 2.51 3.28 4.15 5.24 4.48z" fill="#f7ff62"/><path d="M16.68 17.52c1.06 1.2 2.64 1.8 4.21 1.68-.35.14-.69.3-1.03.48-2.1 1.06-4.72.58-6.23-1.15-2.45-2.76-1.61-6.83 1.73-8.4 1.49-.71 2.63-1.79 3.34-3.29 1.07-2.24.71-4.41-.3-6.61-.25.04-.5.09-.76.13-.01-.03-.02-.05-.03-.08C18.72.09 19.86 0 21.02 0c.25 0 .51 0 .76.02.74 1.93.9 3.84-.03 5.81-.71 1.5-1.85 2.58-3.34 3.29-3.34 1.57-4.17 5.64-1.73 8.4zm-3.54 16.8c-.79.67-1.77 1.01-2.94 1.02-1.24-.04-2.34-.54-2.99-1.76-.63-1.21-.45-2.4.31-3.49.93-1.35 2.25-2 3.84-1.92-.28.25-.55.56-.79.9-.76 1.09-.94 2.28-.31 3.49.63 1.2 1.7 1.69 2.89 1.75zm17.27-22.33c-.63.66-1.53 1.08-2.54 1.06-1.95-.02-3.47-1.58-3.44-3.54.02-1.95 1.54-3.42 3.55-3.41.15 0 .3.01.45.04-.59.61-.94 1.42-.95 2.35-.03 1.79 1.23 3.24 2.93 3.49z" fill="#f7ff62"/><path d="M45 19.99a20.9 20.9 0 01-7.03 15.66l-3.24 1.16c.83-.7 1.63-1.49 2.34-2.37 3.94-4.73 6.06-11.9 3.93-19.18-2.12-7.27-7.67-11.93-12.71-13.75-.69-.25-1.36-.45-2.02-.59h6.51C40 4.25 45 11.54 45 20z" fill="#f7ff62"/><path d="M41 15.25C38.88 7.98 33.33 3.32 28.29 1.5c-.69-.25-1.36-.45-2.02-.59-.36 1.09-1.12 1.82-2.07 2.41-.47.29-.9.68-1.27 1.1-3.71 4.23-1.59 10.82 3.88 12.18 1.57.4 3.08.19 4.58-.4 1.63-.65 3.48-.1 4.55 1.27a3.995 3.995 0 01.19 4.73 4.006 4.006 0 01-4.46 1.58c-1.05-.3-1.79-.97-2.38-1.89-1.32-2.08-3.22-3.17-5.7-3.25-.24-.01-.49 0-.73.03-.69.07-1.34.25-1.97.52-.35.14-.69.3-1.03.48-2.1 1.06-4.72.58-6.23-1.15-2.45-2.76-1.61-6.83 1.73-8.4 1.49-.71 2.63-1.79 3.34-3.29 1.07-2.24.71-4.41-.3-6.61-.25.04-.5.09-.76.13-.6.12-1.21.23-1.85.34 2.04 2.56 1.32 5.19-.14 6.65-.36.34-.75.63-1.16.83-1.83.88-4.86.58-6.23-2.13a6.01 6.01 0 01-.48-1.26c-.15.11-.3.23-.46.36C2.81 8.77-1.09 16.01.27 24.4c1.14 6.98 5.61 12.4 10.92 15.17.43.22.86.44 1.3.62.61.26 1.22.49 1.84.68.18-.72.55-1.27 1.03-1.74.36-.36.77-.67 1.21-.98 3.16-2.22 3.96-6.66 1.89-9.95-1.72-2.71-5.55-4.44-9.01-2.95-1.21.52-2.42.45-3.56-.21-1.42-.81-2.21-2.45-1.98-4 .26-1.73 1.46-3.02 3.18-3.39.39-.08.77-.11 1.15-.07 1.19.09 2.28.75 3 1.83.32.48.65.97 1.05 1.39 2.16 2.27 5.42 2.71 8.34 1.14 2.03-1.1 4.43-.8 6.13.75 1.59 1.45 2.13 3.89 1.31 5.9-.58 1.42-1.65 2.32-3.01 2.98-2.59 1.26-4.08 4.05-3.63 6.88.13.82.37 1.62.61 2.44.1.37.21.74.31 1.12.43-.05.85-.11 1.3-.17.41-.04.82-.1 1.25-.15-.01-.01-.01-.02-.02-.03a5.8 5.8 0 01-.39-.67c-1.74-3.31-.03-6.54 2.39-7.7.73-.34 1.5-.52 2.27-.53 2.35-.06 4.7 1.38 5.52 4.12.86-.71 1.69-1.53 2.42-2.43 3.94-4.73 6.06-11.9 3.93-19.18zm-10.59-3.27c-.63.66-1.53 1.08-2.54 1.06-1.95-.02-3.47-1.58-3.44-3.54.02-1.95 1.54-3.42 3.55-3.41.15 0 .3.01.45.04 1.65.22 2.95 1.69 2.95 3.43 0 .94-.37 1.8-.97 2.41zM7.51 30.09c.93-1.35 2.25-2 3.84-1.92.1 0 .2.01.3.02 1.35.14 2.39.86 2.8 2.23.44 1.43-.02 2.66-1.06 3.66-.08.08-.17.16-.26.23-.79.67-1.77 1.01-2.94 1.02-.2-.01-.42-.03-.61-.07-.98-.15-1.85-.67-2.39-1.69-.26-.5-.39-.99-.39-1.48 0-.7.25-1.37.7-2.01z" fill="#1c1c1a"/></svg>