<svg xmlns="http://www.w3.org/2000/svg" xmlns:xlink="http://www.w3.org/1999/xlink" width="500" zoomAndPan="magnify" viewBox="0 0 375 374.999991" height="500" preserveAspectRatio="xMidYMid meet" version="1.0"><defs><g/></defs><g fill="#242528" fill-opacity="1"><g transform="translate(46.790645, 251.385613)"><g><path d="M 68.3125 0 L 43.359375 0 L 43.359375 -68.3125 C 43.359375 -70.195312 43.382812 -72.523438 43.4375 -75.296875 C 43.5 -78.066406 43.582031 -80.921875 43.6875 -83.859375 C 43.789062 -86.796875 43.898438 -89.445312 44.015625 -91.8125 C 43.421875 -91.113281 42.21875 -89.914062 40.40625 -88.21875 C 38.601562 -86.519531 36.925781 -85 35.375 -83.65625 L 21.796875 -72.75 L 9.765625 -87.78125 L 47.796875 -118.0625 L 68.3125 -118.0625 Z M 68.3125 0 "/></g></g></g><g fill="#242528" fill-opacity="1"><g transform="translate(141.350239, 251.385613)"><g><path d="M 84.546875 -32.78125 C 84.546875 -25.78125 82.847656 -19.695312 79.453125 -14.53125 C 76.066406 -9.363281 71.128906 -5.378906 64.640625 -2.578125 C 58.148438 0.210938 50.273438 1.609375 41.015625 1.609375 C 36.929688 1.609375 32.9375 1.335938 29.03125 0.796875 C 25.125 0.265625 21.378906 -0.523438 17.796875 -1.578125 C 14.222656 -2.628906 10.820312 -3.929688 7.59375 -5.484375 L 7.59375 -28.75 C 13.1875 -26.269531 19 -24.035156 25.03125 -22.046875 C 31.0625 -20.054688 37.035156 -19.0625 42.953125 -19.0625 C 47.046875 -19.0625 50.34375 -19.597656 52.84375 -20.671875 C 55.351562 -21.742188 57.171875 -23.222656 58.296875 -25.109375 C 59.429688 -26.992188 60 -29.148438 60 -31.578125 C 60 -34.535156 59 -37.0625 57 -39.15625 C 55.007812 -41.257812 52.28125 -43.222656 48.8125 -45.046875 C 45.34375 -46.878906 41.425781 -48.847656 37.0625 -50.953125 C 34.320312 -52.242188 31.332031 -53.816406 28.09375 -55.671875 C 24.863281 -57.535156 21.796875 -59.8125 18.890625 -62.5 C 15.984375 -65.1875 13.601562 -68.453125 11.75 -72.296875 C 9.894531 -76.148438 8.96875 -80.769531 8.96875 -86.15625 C 8.96875 -93.207031 10.582031 -99.234375 13.8125 -104.234375 C 17.039062 -109.242188 21.65625 -113.082031 27.65625 -115.75 C 33.65625 -118.414062 40.75 -119.75 48.9375 -119.75 C 55.070312 -119.75 60.925781 -119.035156 66.5 -117.609375 C 72.070312 -116.179688 77.898438 -114.125 83.984375 -111.4375 L 75.90625 -91.96875 C 70.46875 -94.175781 65.59375 -95.882812 61.28125 -97.09375 C 56.976562 -98.3125 52.59375 -98.921875 48.125 -98.921875 C 45 -98.921875 42.332031 -98.421875 40.125 -97.421875 C 37.925781 -96.429688 36.257812 -95.03125 35.125 -93.21875 C 34 -91.414062 33.4375 -89.332031 33.4375 -86.96875 C 33.4375 -84.164062 34.253906 -81.804688 35.890625 -79.890625 C 37.535156 -77.984375 40.007812 -76.140625 43.3125 -74.359375 C 46.625 -72.585938 50.757812 -70.519531 55.71875 -68.15625 C 61.75 -65.300781 66.898438 -62.328125 71.171875 -59.234375 C 75.453125 -56.140625 78.75 -52.503906 81.0625 -48.328125 C 83.382812 -44.160156 84.546875 -38.976562 84.546875 -32.78125 Z M 84.546875 -32.78125 "/></g></g></g><g fill="#242528" fill-opacity="1"><g transform="translate(232.437534, 251.385613)"><g><path d="M 60.40625 0 L 35.375 0 L 35.375 -97.21875 L 3.3125 -97.21875 L 3.3125 -118.0625 L 92.453125 -118.0625 L 92.453125 -97.21875 L 60.40625 -97.21875 Z M 60.40625 0 "/></g></g></g></svg>