<svg xmlns="http://www.w3.org/2000/svg" xmlns:xlink="http://www.w3.org/1999/xlink" width="500" zoomAndPan="magnify" viewBox="0 0 375 374.999991" height="500" preserveAspectRatio="xMidYMid meet" version="1.0"><defs><g/></defs><g fill="#242528" fill-opacity="1"><g transform="translate(11.783549, 251.385613)"><g><path d="M 89.140625 0 L 6.625 0 L 6.625 -17.359375 L 36.25 -47.3125 C 42.226562 -53.457031 47.035156 -58.585938 50.671875 -62.703125 C 54.304688 -66.816406 56.941406 -70.566406 58.578125 -73.953125 C 60.222656 -77.347656 61.046875 -80.988281 61.046875 -84.875 C 61.046875 -89.550781 59.738281 -93.0625 57.125 -95.40625 C 54.519531 -97.75 51.035156 -98.921875 46.671875 -98.921875 C 42.097656 -98.921875 37.65625 -97.867188 33.34375 -95.765625 C 29.039062 -93.671875 24.546875 -90.6875 19.859375 -86.8125 L 6.296875 -102.875 C 9.691406 -105.78125 13.285156 -108.523438 17.078125 -111.109375 C 20.867188 -113.691406 25.28125 -115.773438 30.3125 -117.359375 C 35.351562 -118.953125 41.398438 -119.75 48.453125 -119.75 C 56.203125 -119.75 62.863281 -118.347656 68.4375 -115.546875 C 74.007812 -112.753906 78.300781 -108.945312 81.3125 -104.125 C 84.332031 -99.3125 85.84375 -93.863281 85.84375 -87.78125 C 85.84375 -81.257812 84.546875 -75.304688 81.953125 -69.921875 C 79.367188 -64.546875 75.613281 -59.21875 70.6875 -53.9375 C 65.769531 -48.664062 59.835938 -42.828125 52.890625 -36.421875 L 37.703125 -22.125 L 37.703125 -21 L 89.140625 -21 Z M 89.140625 0 "/></g></g></g><g fill="#242528" fill-opacity="1"><g transform="translate(106.343143, 251.385613)"><g><path d="M 119.59375 0 L 87.78125 0 L 36.421875 -89.3125 L 35.6875 -89.3125 C 35.90625 -85.59375 36.09375 -81.847656 36.25 -78.078125 C 36.414062 -74.316406 36.578125 -70.5625 36.734375 -66.8125 C 36.898438 -63.070312 37.0625 -59.320312 37.21875 -55.5625 L 37.21875 0 L 14.859375 0 L 14.859375 -118.0625 L 46.4375 -118.0625 L 97.703125 -29.640625 L 98.265625 -29.640625 C 98.160156 -33.296875 98.023438 -36.925781 97.859375 -40.53125 C 97.703125 -44.144531 97.554688 -47.753906 97.421875 -51.359375 C 97.285156 -54.960938 97.164062 -58.566406 97.0625 -62.171875 L 97.0625 -118.0625 L 119.59375 -118.0625 Z M 119.59375 0 "/></g></g></g><g fill="#242528" fill-opacity="1"><g transform="translate(240.793804, 251.385613)"><g><path d="M 112.8125 -60.15625 C 112.8125 -46.863281 110.265625 -35.757812 105.171875 -26.84375 C 100.085938 -17.9375 92.726562 -11.234375 83.09375 -6.734375 C 73.457031 -2.242188 61.851562 0 48.28125 0 L 14.859375 0 L 14.859375 -118.0625 L 51.921875 -118.0625 C 64.304688 -118.0625 75.046875 -115.863281 84.140625 -111.46875 C 93.234375 -107.082031 100.285156 -100.597656 105.296875 -92.015625 C 110.304688 -83.429688 112.8125 -72.8125 112.8125 -60.15625 Z M 86.8125 -59.515625 C 86.8125 -68.234375 85.53125 -75.40625 82.96875 -81.03125 C 80.414062 -86.65625 76.648438 -90.8125 71.671875 -93.5 C 66.691406 -96.195312 60.539062 -97.546875 53.21875 -97.546875 L 39.890625 -97.546875 L 39.890625 -20.671875 L 50.625 -20.671875 C 62.84375 -20.671875 71.925781 -23.925781 77.875 -30.4375 C 83.832031 -36.957031 86.8125 -46.648438 86.8125 -59.515625 Z M 86.8125 -59.515625 "/></g></g></g></svg>