<svg xmlns="http://www.w3.org/2000/svg" xmlns:xlink="http://www.w3.org/1999/xlink" width="500" zoomAndPan="magnify" viewBox="0 0 375 374.999991" height="500" preserveAspectRatio="xMidYMid meet" version="1.0"><defs><g/></defs><g fill="#242528" fill-opacity="1"><g transform="translate(24.412103, 251.385613)"><g><path d="M 84.546875 -91.65625 C 84.546875 -86.21875 83.414062 -81.503906 81.15625 -77.515625 C 78.894531 -73.535156 75.835938 -70.28125 71.984375 -67.75 C 68.140625 -65.21875 63.820312 -63.359375 59.03125 -62.171875 L 59.03125 -61.6875 C 68.5 -60.507812 75.695312 -57.601562 80.625 -52.96875 C 85.550781 -48.34375 88.015625 -42.15625 88.015625 -34.40625 C 88.015625 -27.507812 86.332031 -21.34375 82.96875 -15.90625 C 79.601562 -10.46875 74.421875 -6.1875 67.421875 -3.0625 C 60.421875 0.0507812 51.40625 1.609375 40.375 1.609375 C 33.863281 1.609375 27.796875 1.082031 22.171875 0.03125 C 16.546875 -1.007812 11.253906 -2.609375 6.296875 -4.765625 L 6.296875 -26 C 11.359375 -23.414062 16.660156 -21.460938 22.203125 -20.140625 C 27.742188 -18.828125 32.910156 -18.171875 37.703125 -18.171875 C 46.640625 -18.171875 52.898438 -19.71875 56.484375 -22.8125 C 60.066406 -25.90625 61.859375 -30.253906 61.859375 -35.859375 C 61.859375 -39.140625 61.019531 -41.910156 59.34375 -44.171875 C 57.675781 -46.429688 54.785156 -48.148438 50.671875 -49.328125 C 46.554688 -50.515625 40.8125 -51.109375 33.4375 -51.109375 L 24.46875 -51.109375 L 24.46875 -70.25 L 33.59375 -70.25 C 40.863281 -70.25 46.394531 -70.9375 50.1875 -72.3125 C 53.976562 -73.6875 56.5625 -75.570312 57.9375 -77.96875 C 59.3125 -80.363281 60 -83.09375 60 -86.15625 C 60 -90.351562 58.707031 -93.632812 56.125 -96 C 53.539062 -98.375 49.234375 -99.5625 43.203125 -99.5625 C 39.429688 -99.5625 36 -99.085938 32.90625 -98.140625 C 29.8125 -97.203125 27.023438 -96.070312 24.546875 -94.75 C 22.066406 -93.4375 19.882812 -92.160156 18 -90.921875 L 6.453125 -108.125 C 11.085938 -111.457031 16.515625 -114.226562 22.734375 -116.4375 C 28.953125 -118.644531 36.367188 -119.75 44.984375 -119.75 C 57.148438 -119.75 66.785156 -117.300781 73.890625 -112.40625 C 80.992188 -107.507812 84.546875 -100.59375 84.546875 -91.65625 Z M 84.546875 -91.65625 "/></g></g></g><g fill="#242528" fill-opacity="1"><g transform="translate(118.971697, 251.385613)"><g><path d="M 49.25 -118.0625 C 59.96875 -118.0625 68.8125 -116.765625 75.78125 -114.171875 C 82.75 -111.585938 87.929688 -107.6875 91.328125 -102.46875 C 94.722656 -97.25 96.421875 -90.65625 96.421875 -82.6875 C 96.421875 -77.300781 95.394531 -72.585938 93.34375 -68.546875 C 91.300781 -64.515625 88.609375 -61.097656 85.265625 -58.296875 C 81.929688 -55.503906 78.328125 -53.21875 74.453125 -51.4375 L 109.171875 0 L 81.390625 0 L 53.21875 -45.296875 L 39.890625 -45.296875 L 39.890625 0 L 14.859375 0 L 14.859375 -118.0625 Z M 47.484375 -97.546875 L 39.890625 -97.546875 L 39.890625 -65.65625 L 47.96875 -65.65625 C 56.257812 -65.65625 62.191406 -67.039062 65.765625 -69.8125 C 69.347656 -72.582031 71.140625 -76.660156 71.140625 -82.046875 C 71.140625 -87.640625 69.210938 -91.617188 65.359375 -93.984375 C 61.515625 -96.359375 55.554688 -97.546875 47.484375 -97.546875 Z M 47.484375 -97.546875 "/></g></g></g><g fill="#242528" fill-opacity="1"><g transform="translate(228.14725, 251.385613)"><g><path d="M 112.8125 -60.15625 C 112.8125 -46.863281 110.265625 -35.757812 105.171875 -26.84375 C 100.085938 -17.9375 92.726562 -11.234375 83.09375 -6.734375 C 73.457031 -2.242188 61.851562 0 48.28125 0 L 14.859375 0 L 14.859375 -118.0625 L 51.921875 -118.0625 C 64.304688 -118.0625 75.046875 -115.863281 84.140625 -111.46875 C 93.234375 -107.082031 100.285156 -100.597656 105.296875 -92.015625 C 110.304688 -83.429688 112.8125 -72.8125 112.8125 -60.15625 Z M 86.8125 -59.515625 C 86.8125 -68.234375 85.53125 -75.40625 82.96875 -81.03125 C 80.414062 -86.65625 76.648438 -90.8125 71.671875 -93.5 C 66.691406 -96.195312 60.539062 -97.546875 53.21875 -97.546875 L 39.890625 -97.546875 L 39.890625 -20.671875 L 50.625 -20.671875 C 62.84375 -20.671875 71.925781 -23.925781 77.875 -30.4375 C 83.832031 -36.957031 86.8125 -46.648438 86.8125 -59.515625 Z M 86.8125 -59.515625 "/></g></g></g></svg>