<svg xmlns="http://www.w3.org/2000/svg" xmlns:xlink="http://www.w3.org/1999/xlink" width="500" zoomAndPan="magnify" viewBox="0 0 375 374.999991" height="500" preserveAspectRatio="xMidYMid meet" version="1.0"><defs><g/></defs><g fill="#242528" fill-opacity="1"><g transform="translate(29.054954, 251.385613)"><g><path d="M 91.8125 -24.46875 L 77.59375 -24.46875 L 77.59375 0 L 53.21875 0 L 53.21875 -24.46875 L 2.828125 -24.46875 L 2.828125 -41.828125 L 54.59375 -118.0625 L 77.59375 -118.0625 L 77.59375 -43.84375 L 91.8125 -43.84375 Z M 53.21875 -43.84375 L 53.21875 -63.875 C 53.21875 -65.757812 53.253906 -67.992188 53.328125 -70.578125 C 53.410156 -73.160156 53.503906 -75.742188 53.609375 -78.328125 C 53.722656 -80.910156 53.847656 -83.210938 53.984375 -85.234375 C 54.117188 -87.253906 54.210938 -88.664062 54.265625 -89.46875 L 53.625 -89.46875 C 52.59375 -87.257812 51.507812 -85.117188 50.375 -83.046875 C 49.25 -80.972656 47.9375 -78.804688 46.4375 -76.546875 L 24.796875 -43.84375 Z M 53.21875 -43.84375 "/></g></g></g><g fill="#242528" fill-opacity="1"><g transform="translate(123.614548, 251.385613)"><g><path d="M 60.40625 0 L 35.375 0 L 35.375 -97.21875 L 3.3125 -97.21875 L 3.3125 -118.0625 L 92.453125 -118.0625 L 92.453125 -97.21875 L 60.40625 -97.21875 Z M 60.40625 0 "/></g></g></g><g fill="#242528" fill-opacity="1"><g transform="translate(219.38541, 251.385613)"><g><path d="M 111.59375 0 L 86.640625 0 L 86.640625 -50.953125 L 39.890625 -50.953125 L 39.890625 0 L 14.859375 0 L 14.859375 -118.0625 L 39.890625 -118.0625 L 39.890625 -71.78125 L 86.640625 -71.78125 L 86.640625 -118.0625 L 111.59375 -118.0625 Z M 111.59375 0 "/></g></g></g></svg>