<svg xmlns="http://www.w3.org/2000/svg" xmlns:xlink="http://www.w3.org/1999/xlink" width="500" zoomAndPan="magnify" viewBox="0 0 375 374.999991" height="500" preserveAspectRatio="xMidYMid meet" version="1.0"><defs><g/></defs><g fill="#242528" fill-opacity="1"><g transform="translate(29.054954, 251.385613)"><g><path d="M 49.578125 -75.421875 C 56.796875 -75.421875 63.21875 -74.046875 68.84375 -71.296875 C 74.46875 -68.554688 78.894531 -64.519531 82.125 -59.1875 C 85.351562 -53.851562 86.96875 -47.285156 86.96875 -39.484375 C 86.96875 -30.984375 85.203125 -23.648438 81.671875 -17.484375 C 78.148438 -11.316406 72.898438 -6.59375 65.921875 -3.3125 C 58.953125 -0.03125 50.273438 1.609375 39.890625 1.609375 C 33.703125 1.609375 27.875 1.082031 22.40625 0.03125 C 16.945312 -1.007812 12.171875 -2.609375 8.078125 -4.765625 L 8.078125 -26.328125 C 12.171875 -24.171875 17.082031 -22.351562 22.8125 -20.875 C 28.539062 -19.394531 33.9375 -18.65625 39 -18.65625 C 43.957031 -18.65625 48.128906 -19.3125 51.515625 -20.625 C 54.910156 -21.945312 57.484375 -23.992188 59.234375 -26.765625 C 60.984375 -29.535156 61.859375 -33.078125 61.859375 -37.390625 C 61.859375 -43.148438 59.914062 -47.5625 56.03125 -50.625 C 52.15625 -53.695312 46.207031 -55.234375 38.1875 -55.234375 C 35.125 -55.234375 31.9375 -54.9375 28.625 -54.34375 C 25.3125 -53.75 22.550781 -53.15625 20.34375 -52.5625 L 10.421875 -57.890625 L 14.859375 -118.0625 L 78.890625 -118.0625 L 78.890625 -96.90625 L 36.734375 -96.90625 L 34.5625 -73.71875 C 36.394531 -74.101562 38.382812 -74.484375 40.53125 -74.859375 C 42.6875 -75.234375 45.703125 -75.421875 49.578125 -75.421875 Z M 49.578125 -75.421875 "/></g></g></g><g fill="#242528" fill-opacity="1"><g transform="translate(123.614548, 251.385613)"><g><path d="M 60.40625 0 L 35.375 0 L 35.375 -97.21875 L 3.3125 -97.21875 L 3.3125 -118.0625 L 92.453125 -118.0625 L 92.453125 -97.21875 L 60.40625 -97.21875 Z M 60.40625 0 "/></g></g></g><g fill="#242528" fill-opacity="1"><g transform="translate(219.38541, 251.385613)"><g><path d="M 111.59375 0 L 86.640625 0 L 86.640625 -50.953125 L 39.890625 -50.953125 L 39.890625 0 L 14.859375 0 L 14.859375 -118.0625 L 39.890625 -118.0625 L 39.890625 -71.78125 L 86.640625 -71.78125 L 86.640625 -118.0625 L 111.59375 -118.0625 Z M 111.59375 0 "/></g></g></g></svg>