<svg xmlns="http://www.w3.org/2000/svg" xmlns:xlink="http://www.w3.org/1999/xlink" width="500" zoomAndPan="magnify" viewBox="0 0 375 374.999991" height="500" preserveAspectRatio="xMidYMid meet" version="1.0"><defs><g/></defs><g fill="#242528" fill-opacity="1"><g transform="translate(29.054954, 251.385613)"><g><path d="M 5.8125 -50.140625 C 5.8125 -56.921875 6.304688 -63.632812 7.296875 -70.28125 C 8.296875 -76.9375 10.035156 -83.210938 12.515625 -89.109375 C 14.992188 -95.003906 18.46875 -100.222656 22.9375 -104.765625 C 27.40625 -109.316406 33.082031 -112.894531 39.96875 -115.5 C 46.863281 -118.113281 55.207031 -119.421875 65 -119.421875 C 67.3125 -119.421875 70.015625 -119.328125 73.109375 -119.140625 C 76.210938 -118.953125 78.785156 -118.644531 80.828125 -118.21875 L 80.828125 -98.265625 C 78.671875 -98.753906 76.367188 -99.144531 73.921875 -99.4375 C 71.472656 -99.738281 69.039062 -99.890625 66.625 -99.890625 C 56.820312 -99.890625 49.242188 -98.328125 43.890625 -95.203125 C 38.535156 -92.078125 34.765625 -87.753906 32.578125 -82.234375 C 30.398438 -76.722656 29.125 -70.304688 28.75 -62.984375 L 29.796875 -62.984375 C 31.304688 -65.617188 33.203125 -67.957031 35.484375 -70 C 37.773438 -72.050781 40.5625 -73.679688 43.84375 -74.890625 C 47.125 -76.109375 50.972656 -76.71875 55.390625 -76.71875 C 62.285156 -76.71875 68.257812 -75.25 73.3125 -72.3125 C 78.375 -69.375 82.273438 -65.132812 85.015625 -59.59375 C 87.765625 -54.050781 89.140625 -47.296875 89.140625 -39.328125 C 89.140625 -30.816406 87.5 -23.492188 84.21875 -17.359375 C 80.9375 -11.222656 76.289062 -6.523438 70.28125 -3.265625 C 64.28125 -0.015625 57.164062 1.609375 48.9375 1.609375 C 42.90625 1.609375 37.273438 0.570312 32.046875 -1.5 C 26.828125 -3.570312 22.253906 -6.734375 18.328125 -10.984375 C 14.398438 -15.234375 11.332031 -20.601562 9.125 -27.09375 C 6.914062 -33.582031 5.8125 -41.265625 5.8125 -50.140625 Z M 48.453125 -18.328125 C 53.347656 -18.328125 57.328125 -19.992188 60.390625 -23.328125 C 63.460938 -26.671875 65 -31.894531 65 -39 C 65 -44.757812 63.664062 -49.296875 61 -52.609375 C 58.34375 -55.921875 54.320312 -57.578125 48.9375 -57.578125 C 45.269531 -57.578125 42.050781 -56.753906 39.28125 -55.109375 C 36.507812 -53.472656 34.367188 -51.398438 32.859375 -48.890625 C 31.359375 -46.390625 30.609375 -43.820312 30.609375 -41.1875 C 30.609375 -38.4375 30.984375 -35.710938 31.734375 -33.015625 C 32.484375 -30.328125 33.613281 -27.878906 35.125 -25.671875 C 36.632812 -23.472656 38.503906 -21.695312 40.734375 -20.34375 C 42.972656 -19 45.546875 -18.328125 48.453125 -18.328125 Z M 48.453125 -18.328125 "/></g></g></g><g fill="#242528" fill-opacity="1"><g transform="translate(123.614548, 251.385613)"><g><path d="M 60.40625 0 L 35.375 0 L 35.375 -97.21875 L 3.3125 -97.21875 L 3.3125 -118.0625 L 92.453125 -118.0625 L 92.453125 -97.21875 L 60.40625 -97.21875 Z M 60.40625 0 "/></g></g></g><g fill="#242528" fill-opacity="1"><g transform="translate(219.38541, 251.385613)"><g><path d="M 111.59375 0 L 86.640625 0 L 86.640625 -50.953125 L 39.890625 -50.953125 L 39.890625 0 L 14.859375 0 L 14.859375 -118.0625 L 39.890625 -118.0625 L 39.890625 -71.78125 L 86.640625 -71.78125 L 86.640625 -118.0625 L 111.59375 -118.0625 Z M 111.59375 0 "/></g></g></g></svg>