<svg xmlns="http://www.w3.org/2000/svg" xmlns:xlink="http://www.w3.org/1999/xlink" width="500" zoomAndPan="magnify" viewBox="0 0 375 374.999991" height="500" preserveAspectRatio="xMidYMid meet" version="1.0"><defs><g/></defs><g fill="#242528" fill-opacity="1"><g transform="translate(29.054954, 251.385613)"><g><path d="M 18.328125 0 L 62.65625 -97.0625 L 4.4375 -97.0625 L 4.4375 -118.0625 L 89.140625 -118.0625 L 89.140625 -102.390625 L 44.5 0 Z M 18.328125 0 "/></g></g></g><g fill="#242528" fill-opacity="1"><g transform="translate(123.614548, 251.385613)"><g><path d="M 60.40625 0 L 35.375 0 L 35.375 -97.21875 L 3.3125 -97.21875 L 3.3125 -118.0625 L 92.453125 -118.0625 L 92.453125 -97.21875 L 60.40625 -97.21875 Z M 60.40625 0 "/></g></g></g><g fill="#242528" fill-opacity="1"><g transform="translate(219.38541, 251.385613)"><g><path d="M 111.59375 0 L 86.640625 0 L 86.640625 -50.953125 L 39.890625 -50.953125 L 39.890625 0 L 14.859375 0 L 14.859375 -118.0625 L 39.890625 -118.0625 L 39.890625 -71.78125 L 86.640625 -71.78125 L 86.640625 -118.0625 L 111.59375 -118.0625 Z M 111.59375 0 "/></g></g></g></svg>