<svg xmlns="http://www.w3.org/2000/svg" xmlns:xlink="http://www.w3.org/1999/xlink" width="500" zoomAndPan="magnify" viewBox="0 0 375 374.999991" height="500" preserveAspectRatio="xMidYMid meet" version="1.0"><defs><g/></defs><g fill="#242528" fill-opacity="1"><g transform="translate(29.054954, 251.385613)"><g><path d="M 47.3125 -119.59375 C 54.101562 -119.59375 60.363281 -118.539062 66.09375 -116.4375 C 71.820312 -114.34375 76.410156 -111.179688 79.859375 -106.953125 C 83.304688 -102.722656 85.03125 -97.429688 85.03125 -91.078125 C 85.03125 -86.347656 84.097656 -82.207031 82.234375 -78.65625 C 80.378906 -75.101562 77.863281 -71.992188 74.6875 -69.328125 C 71.507812 -66.660156 67.90625 -64.332031 63.875 -62.34375 C 68.070312 -60.132812 72.050781 -57.5625 75.8125 -54.625 C 79.582031 -51.6875 82.664062 -48.253906 85.0625 -44.328125 C 87.457031 -40.398438 88.65625 -35.828125 88.65625 -30.609375 C 88.65625 -24.035156 86.90625 -18.335938 83.40625 -13.515625 C 79.914062 -8.703125 75.070312 -4.976562 68.875 -2.34375 C 62.6875 0.289062 55.5 1.609375 47.3125 1.609375 C 38.488281 1.609375 30.976562 0.347656 24.78125 -2.171875 C 18.59375 -4.703125 13.882812 -8.320312 10.65625 -13.03125 C 7.425781 -17.75 5.8125 -23.390625 5.8125 -29.953125 C 5.8125 -35.335938 6.820312 -40.019531 8.84375 -44 C 10.863281 -47.988281 13.59375 -51.421875 17.03125 -54.296875 C 20.476562 -57.179688 24.273438 -59.644531 28.421875 -61.6875 C 24.921875 -63.894531 21.726562 -66.398438 18.84375 -69.203125 C 15.96875 -72.003906 13.679688 -75.207031 11.984375 -78.8125 C 10.296875 -82.414062 9.453125 -86.5625 9.453125 -91.25 C 9.453125 -97.488281 11.210938 -102.707031 14.734375 -106.90625 C 18.265625 -111.101562 22.910156 -114.265625 28.671875 -116.390625 C 34.429688 -118.523438 40.644531 -119.59375 47.3125 -119.59375 Z M 28.90625 -31.40625 C 28.90625 -27.15625 30.425781 -23.644531 33.46875 -20.875 C 36.507812 -18.101562 41.019531 -16.71875 47 -16.71875 C 53.1875 -16.71875 57.8125 -18.046875 60.875 -20.703125 C 63.945312 -23.367188 65.484375 -26.882812 65.484375 -31.25 C 65.484375 -34.257812 64.609375 -36.894531 62.859375 -39.15625 C 61.109375 -41.425781 58.914062 -43.460938 56.28125 -45.265625 C 53.644531 -47.066406 50.976562 -48.75 48.28125 -50.3125 L 46.109375 -51.4375 C 42.660156 -49.875 39.65625 -48.125 37.09375 -46.1875 C 34.539062 -44.25 32.535156 -42.066406 31.078125 -39.640625 C 29.628906 -37.222656 28.90625 -34.476562 28.90625 -31.40625 Z M 47.15625 -101.34375 C 43.0625 -101.34375 39.671875 -100.289062 36.984375 -98.1875 C 34.296875 -96.09375 32.953125 -93.132812 32.953125 -89.3125 C 32.953125 -86.613281 33.609375 -84.253906 34.921875 -82.234375 C 36.242188 -80.222656 37.992188 -78.460938 40.171875 -76.953125 C 42.347656 -75.441406 44.726562 -74.039062 47.3125 -72.75 C 49.789062 -73.9375 52.109375 -75.253906 54.265625 -76.703125 C 56.421875 -78.160156 58.171875 -79.910156 59.515625 -81.953125 C 60.859375 -84.003906 61.53125 -86.457031 61.53125 -89.3125 C 61.53125 -93.132812 60.171875 -96.09375 57.453125 -98.1875 C 54.734375 -100.289062 51.300781 -101.34375 47.15625 -101.34375 Z M 47.15625 -101.34375 "/></g></g></g><g fill="#242528" fill-opacity="1"><g transform="translate(123.614548, 251.385613)"><g><path d="M 60.40625 0 L 35.375 0 L 35.375 -97.21875 L 3.3125 -97.21875 L 3.3125 -118.0625 L 92.453125 -118.0625 L 92.453125 -97.21875 L 60.40625 -97.21875 Z M 60.40625 0 "/></g></g></g><g fill="#242528" fill-opacity="1"><g transform="translate(219.38541, 251.385613)"><g><path d="M 111.59375 0 L 86.640625 0 L 86.640625 -50.953125 L 39.890625 -50.953125 L 39.890625 0 L 14.859375 0 L 14.859375 -118.0625 L 39.890625 -118.0625 L 39.890625 -71.78125 L 86.640625 -71.78125 L 86.640625 -118.0625 L 111.59375 -118.0625 Z M 111.59375 0 "/></g></g></g></svg>