<svg width="53" height="32" fill="none" xmlns="http://www.w3.org/2000/svg"><path clip-rule="evenodd" d="M13.424 17.809l11.53 4.42c.899.344 1.824-.053 2.72-.4a2732.008 2732.008 0 0111.329-4.385v8.835c0 2.587-5.116 4.32-12.059 4.685-6.943.365-13.52-2.098-13.52-4.685v-8.47z" stroke="#F7FF62"/><path clip-rule="evenodd" d="M13.424 17.81l11.201 4.174a3.856 3.856 0 002.706-.006l10.94-4.125v7.955c0 2.444-5.562 4.425-12.423 4.425-6.862 0-12.424-1.981-12.424-4.425v-7.999z" stroke="#1F1D0D" stroke-width="1.5"/><path d="M48.633 23.474c.349-.646.743-1.485 1.077-2.232.26-.58 1-.709 1.318-.158.557.964.925 2.115 1.107 2.881.058.244.007.508-.178.674-.787.706-2.001.517-2.944.156-.506-.194-.64-.841-.38-1.32z" fill="#fff"/><path fill-rule="evenodd" clip-rule="evenodd" d="M50.047 20.735a.411.411 0 00-.308.203 28.297 28.297 0 01-1.156 1.898.424.424 0 00-.06.367.311.311 0 00.215.207c.467.142.98.242 1.456.245.473.003.876-.09 1.179-.305.034-.024.075-.089.043-.194-.187-.623-.563-1.55-1.12-2.316a.252.252 0 00-.249-.105zm-.081-.724c.555-.054 1.132.114 1.462.515l-.5.206m-.231-.73c-.617.055-1.178.323-1.462.73l1.462-.73zm.312.73c.567.946.934 2.06 1.116 2.795.083.336.022.756-.305 1.04-.483.417-1.081.555-1.654.55-.569-.004-1.142-.148-1.627-.327-.808-.298-.924-1.228-.592-1.822a31.56 31.56 0 001.025-2.05" fill="#000"/><path fill-rule="evenodd" clip-rule="evenodd" d="M49.427 20.118a.528.528 0 01.737.073c.18.216.271.535.33.8.063.292.107.633.137.977.06.688.071 1.433.062 1.911a.52.52 0 01-.533.507.52.52 0 01-.513-.526 18.54 18.54 0 00-.059-1.803 7.135 7.135 0 00-.118-.849 2.089 2.089 0 00-.078-.276c-.024-.064-.04-.088-.04-.088a.511.511 0 01.075-.726z" fill="#000"/><path fill-rule="evenodd" clip-rule="evenodd" d="M49.965 10.5a.73.73 0 01.731.727v8.048a.729.729 0 01-.73.727.729.729 0 01-.732-.727v-8.048c0-.4.327-.726.731-.726z" fill="#000"/><path d="M52.158 19.636a1.827 1.827 0 11-3.654 0 1.827 1.827 0 013.654 0z" fill="#000"/><path d="M24.487 1.291l-23.17 9.37a.515.515 0 00.01.955l23.236 8.855a3.98 3.98 0 002.852-.006l22.956-8.85a.515.515 0 00.01-.953L27.49 1.297a3.98 3.98 0 00-3.003-.006z" stroke="#1F1D0D" stroke-width="1.5"/><path fill-rule="evenodd" clip-rule="evenodd" d="M44.089 12.294a.51.51 0 01-.29.647L27.23 19.24a.48.48 0 01-.621-.301.51.51 0 01.289-.647l16.57-6.299a.48.48 0 01.622.301zM5.415 10.81a.495.495 0 01.628-.28l5.598 1.979c.254.09.384.36.291.605a.495.495 0 01-.628.281l-5.598-1.98a.467.467 0 01-.291-.605z" fill="#1F1D0D"/></svg>