<svg width="42" height="30" fill="none" xmlns="http://www.w3.org/2000/svg"><path d="M3.75 3.75c0-.414.342-.75.765-.75h36.72c.422 0 .765.336.765.75V27c0 .414-.343.75-.764.75H4.515A.758.758 0 013.75 27V3.75z" fill="#F7FF62"/><path d="M.75 1.5c0-.414.342-.75.765-.75h36.72c.422 0 .765.336.765.75v23.25c0 .414-.343.75-.764.75H1.515a.758.758 0 01-.765-.75V1.5z" fill="#fff"/><path fill-rule="evenodd" clip-rule="evenodd" d="M1.528 0h36.694c.844 0 1.528.672 1.528 1.5v23.25c0 .828-.684 1.5-1.528 1.5H1.528C.684 26.25 0 25.578 0 24.75V1.5C0 .673.684 0 1.528 0zm-.013.75a.758.758 0 00-.765.75v23.25c0 .414.342.75.765.75h36.72a.758.758 0 00.765-.75V1.5a.758.758 0 00-.764-.75H1.515z" fill="#1F1D0D"/><path fill-rule="evenodd" clip-rule="evenodd" d="M6.75 10.125c0-.207.17-.375.379-.375H32.62c.21 0 .379.168.379.375s-.17.375-.379.375H7.13a.377.377 0 01-.379-.375zm8.25-4.5c0-.207.166-.375.372-.375h9.006c.206 0 .372.168.372.375a.373.373 0 01-.372.375h-9.006A.373.373 0 0115 5.625zm-8.25 6.75c0-.207.17-.375.379-.375H32.62c.21 0 .379.168.379.375s-.17.375-.379.375H7.13a.377.377 0 01-.379-.375zm0 2.25c0-.207.17-.375.379-.375H32.62c.21 0 .379.168.379.375s-.17.375-.379.375H7.13a.377.377 0 01-.379-.375zm0 2.25c0-.207.17-.375.379-.375H32.62c.21 0 .379.168.379.375s-.17.375-.379.375H7.13a.377.377 0 01-.379-.375zm0 2.25c0-.207.17-.375.382-.375h11.986c.211 0 .382.168.382.375s-.17.375-.382.375H7.132a.378.378 0 01-.382-.375z" fill="#000"/><path d="M30.75 21.75h4.5v7.5L33 27.132l-2.25 2.118v-7.5z" fill="#fff"/><path fill-rule="evenodd" clip-rule="evenodd" d="M30 21.78c0-.43.364-.78.813-.78h4.375c.448 0 .812.35.812.78v7.44a.78.78 0 01-.502.72.837.837 0 01-.885-.169L33 28.224l-1.613 1.549a.837.837 0 01-.885.169.78.78 0 01-.502-.721v-7.44zm3 5.352l2.25 2.118v-7.5h-4.5v7.5L33 27.132z" fill="#000"/><path d="M36 22.125a3.375 3.375 0 11-6.75 0 3.375 3.375 0 016.75 0z" fill="#fff"/><path fill-rule="evenodd" clip-rule="evenodd" d="M36.75 22.125a4.125 4.125 0 11-8.25 0 4.125 4.125 0 018.25 0zM32.625 25.5a3.375 3.375 0 100-6.75 3.375 3.375 0 000 6.75z" fill="#000"/><path fill-rule="evenodd" clip-rule="evenodd" d="M35.25 22.125a2.625 2.625 0 11-5.25 0 2.625 2.625 0 015.25 0zM32.625 24a1.875 1.875 0 100-3.75 1.875 1.875 0 000 3.75z" fill="#000"/></svg>