<svg width="31" height="30" fill="none" xmlns="http://www.w3.org/2000/svg"><path d="M25.5 15.375c0 5.592-4.533 10.125-10.125 10.125S5.25 20.967 5.25 15.375 9.783 5.25 15.375 5.25 25.5 9.783 25.5 15.375z" fill="#fff"/><path fill-rule="evenodd" clip-rule="evenodd" d="M26.25 15.375c0 6.006-4.869 10.875-10.875 10.875S4.5 21.381 4.5 15.375 9.369 4.5 15.375 4.5 26.25 9.369 26.25 15.375zM15.375 25.5c5.592 0 10.125-4.533 10.125-10.125S20.967 5.25 15.375 5.25 5.25 9.783 5.25 15.375 9.783 25.5 15.375 25.5z" fill="#F7FF62"/><path fill-rule="evenodd" clip-rule="evenodd" d="M14.304 24.863c5.492 0 9.944-4.538 9.944-10.134 0-3.716-1.962-6.965-4.889-8.729 3.605 1.522 6.141 5.142 6.141 9.366 0 5.597-4.452 10.134-9.945 10.134a9.758 9.758 0 01-5.055-1.405 9.755 9.755 0 003.804.768z" fill="#000"/><path fill-rule="evenodd" clip-rule="evenodd" d="M3.68 8.288c1.012 3.313 3.123 7.276 6.074 11.126 2.952 3.85 6.22 6.904 9.139 8.72 1.457.907 2.856 1.523 4.107 1.76 1.25.235 2.426.1 3.327-.607.9-.707 1.321-1.827 1.406-3.111.086-1.285-.157-2.81-.663-4.464-1.012-3.313-3.123-7.276-6.074-11.126-2.952-3.85-6.22-6.904-9.139-8.72C10.4.959 9.001.342 7.75.106 6.5-.128 5.324.007 4.423.714c-.9.707-1.321 1.827-1.406 3.111-.085 1.285.157 2.81.663 4.464zm6.625 10.703C4.53 11.438 2.117 3.528 4.917 1.324c2.8-2.204 9.752 2.132 15.528 9.685 5.776 7.553 8.188 15.463 5.388 17.667-2.8 2.204-9.752-2.132-15.528-9.685z" fill="#000"/><path fill-rule="evenodd" clip-rule="evenodd" d="M28.25 11.603c-1.747 3.04-4.72 6.456-8.488 9.565-3.77 3.11-7.686 5.377-11 6.51-1.652.567-3.205.867-4.54.816-1.332-.05-2.563-.461-3.372-1.446-.81-.984-.976-2.273-.77-3.593.207-1.322.8-2.791 1.67-4.308 1.747-3.04 4.72-6.456 8.488-9.565 3.77-3.11 7.686-5.377 11-6.511 1.652-.566 3.205-.866 4.54-.815 1.332.05 2.563.461 3.372 1.446.81.984.976 2.273.77 3.593-.207 1.322-.8 2.791-1.67 4.308zm-9.521 8.382c7.318-6.027 11.413-13.145 9.146-15.898-2.266-2.752-10.036-.098-17.354 5.928C3.203 16.043-.892 23.16 1.375 25.913c2.266 2.753 10.036.098 17.354-5.928z" fill="#000"/><path d="M30.75 7.875a1.125 1.125 0 11-2.25 0 1.125 1.125 0 012.25 0zm-18 1.5a1.125 1.125 0 11-2.25 0 1.125 1.125 0 012.25 0zm0 16.5a1.875 1.875 0 11-3.75 0 1.875 1.875 0 013.75 0z" fill="#000"/></svg>