<svg width="35" height="30" fill="none" xmlns="http://www.w3.org/2000/svg"><path d="M15.754 9.75c2.483 0 4.496 1.99 4.496 4.447v7.778c0 2.456-2.013 4.447-4.496 4.447h-4.826l-2.832 3.456c-.196.24-.587.102-.587-.206v-3.25h-.013C5.013 26.422 3 24.43 3 21.975v-7.778C3 11.74 5.013 9.75 7.496 9.75h8.258z" fill="#F7FF62"/><path d="M20.139 2.25c-2.424 0-4.389 1.981-4.389 4.425v11.983c0 2.444 1.965 4.425 4.389 4.425h5.734l3.653 4.546a.322.322 0 00.574-.205v-4.341h.011c2.424 0 4.389-1.981 4.389-4.425V6.675c0-2.444-1.965-4.425-4.389-4.425H20.14z" fill="#F7FF62"/><path fill-rule="evenodd" clip-rule="evenodd" d="M13.37 8.25c2.557 0 4.63 2.065 4.63 4.612v7.57c0 2.548-2.073 4.613-4.63 4.613H8.678l-3.42 4.205v-4.206C2.758 24.98.75 22.94.75 20.433v-7.57c0-2.548 2.073-4.613 4.63-4.613h7.99z" fill="#fff"/><path fill-rule="evenodd" clip-rule="evenodd" d="M8.678 24.445h4.692c2.557 0 4.63-1.99 4.63-4.447v-7.3c0-2.457-2.073-4.448-4.63-4.448H5.38c-2.557 0-4.63 1.991-4.63 4.447v7.3c0 2.418 2.008 4.385 4.508 4.447V28.5l3.42-4.055zm-4.127.651C1.976 24.73 0 22.594 0 20.015v-7.378C0 9.8 2.391 7.5 5.341 7.5h8.068c2.95 0 5.341 2.3 5.341 5.137v7.378c0 2.837-2.391 5.137-5.341 5.137h-4.42l-3.251 3.86a.684.684 0 01-.742.201.644.644 0 01-.445-.605v-3.512z" fill="#000"/><path fill-rule="evenodd" clip-rule="evenodd" d="M1.5 13.228C1.5 10.893 3.421 9 5.792 9h7.917C16.079 9 18 10.893 18 13.228v7.294c0 2.335-1.921 4.228-4.291 4.228h-4.73a.328.328 0 01-.33-.325c0-.18.147-.326.33-.326h4.73c2.005 0 3.63-1.601 3.63-3.577v-7.294c0-1.976-1.625-3.577-3.63-3.577H5.792c-2.006 0-3.632 1.601-3.632 3.577v7.294c0 1.976 1.626 3.578 3.631 3.578h.324c.182 0 .33.145.33.325 0 .18-.148.325-.33.325H5.79c-2.37 0-4.291-1.893-4.291-4.228v-7.294z" fill="#000"/><path fill-rule="evenodd" clip-rule="evenodd" d="M3.75 15.375c0-.207.23-.375.513-.375h4.224c.283 0 .513.168.513.375s-.23.375-.513.375H4.263c-.283 0-.513-.168-.513-.375zm0-3c0-.207.22-.375.491-.375h9.518c.271 0 .491.168.491.375s-.22.375-.49.375H4.24c-.271 0-.491-.168-.491-.375zm0 6c0-.207.248-.375.553-.375h1.894c.305 0 .553.168.553.375s-.248.375-.553.375H4.303c-.305 0-.553-.168-.553-.375z" fill="#000"/><path fill-rule="evenodd" clip-rule="evenodd" d="M18.019.75C15.523.75 13.5 2.802 13.5 5.333v11.793c0 2.53 2.023 4.583 4.519 4.583h5.605L27.85 27v-5.293c2.44-.063 4.4-2.09 4.4-4.582V5.333c0-2.531-2.023-4.583-4.519-4.583H18.02z" fill="#fff"/><path fill-rule="evenodd" clip-rule="evenodd" d="M23.623 21.709H18.02c-2.496 0-4.519-2.052-4.519-4.584V5.333C13.5 2.802 15.523.75 18.019.75h9.712c2.496 0 4.519 2.052 4.519 4.583v11.793c0 2.49-1.96 4.518-4.4 4.581V27l-4.227-5.291zm4.93.656C31.07 21.988 33 19.795 33 17.148V5.274C33 2.361 30.664 0 27.782 0h-9.814c-2.882 0-5.218 2.361-5.218 5.274v11.874c0 2.913 2.336 5.274 5.218 5.274h5.352l4.075 5.084c.174.217.464.3.724.206a.659.659 0 00.435-.621v-4.726z" fill="#000"/><path fill-rule="evenodd" clip-rule="evenodd" d="M13.5 5.696c0-2.318 1.89-4.196 4.222-4.196h9.556c2.332 0 4.222 1.878 4.222 4.196v11.108c0 2.318-1.89 4.196-4.222 4.196h-.115a.324.324 0 01-.325-.323c0-.178.146-.322.325-.322h.115c1.973 0 3.572-1.59 3.572-3.55V5.694c0-1.96-1.6-3.55-3.572-3.55h-9.556c-1.973 0-3.573 1.59-3.573 3.55v11.11c0 1.96 1.6 3.55 3.573 3.55h5.817c.18 0 .325.144.325.322a.324.324 0 01-.325.323h-5.817c-2.332 0-4.222-1.878-4.222-4.196V5.696z" fill="#000"/><path fill-rule="evenodd" clip-rule="evenodd" d="M16.5 12c0-.414.29-.75.648-.75h10.704c.358 0 .648.336.648.75s-.29.75-.648.75H17.148c-.358 0-.648-.336-.648-.75zm0-3c0-.414.29-.75.648-.75h10.704c.358 0 .648.336.648.75s-.29.75-.648.75H17.148c-.358 0-.648-.336-.648-.75zm0-3.75c0-.414.29-.75.648-.75h10.704c.358 0 .648.336.648.75s-.29.75-.648.75H17.148c-.358 0-.648-.336-.648-.75zm0 9.75c0-.414.306-.75.684-.75h6.132c.378 0 .684.336.684.75s-.306.75-.684.75h-6.132c-.378 0-.684-.336-.684-.75z" fill="#000"/></svg>