<svg width="2194" height="1331" viewBox="0 0 2194 1331" fill="none" xmlns="http://www.w3.org/2000/svg">
<path opacity="0.06" fill-rule="evenodd" clip-rule="evenodd" d="M2065.13 650.984C1918.47 587.697 1801.53 756.245 1688.51 919.329C1617.62 1021.65 1537.26 1137.6 1474.57 1149.43C1465.5 1151.15 1452.85 1151.64 1435.41 1140.17C1356.23 1088.15 1494.78 776.113 1586.47 569.627C1701.18 311.35 1769.53 148.568 1731.38 60.1839C1720.53 35.0538 1701.32 16.6979 1675.85 7.11658C1555 -38.2352 1416.96 170.37 1163.12 574.35C1053.96 748.042 941.108 927.65 838.063 1058.23C696.933 1237.08 636.525 1243.04 617.162 1237.43C526.888 1210.91 540.489 1089.83 571.566 908.134C600.533 738.763 633.341 546.783 462.708 514.458C170.653 459.105 10.523 877.558 3.82637 895.393C-4.99861 919.01 7.5294 945.115 31.8413 953.705C56.1706 962.277 83.0262 950.107 91.8685 926.49C93.2355 922.859 233.864 563.827 444.781 603.75C520.555 618.122 508.321 722.693 479.164 893.224C448.726 1071.19 414.24 1272.88 590.047 1324.5C602.575 1328.18 615.207 1330 628.029 1330C785.823 1329.97 970.005 1056.29 1243.08 621.753C1333.68 477.561 1419.27 341.372 1494.38 240.498C1602.48 95.3492 1639.42 92.1554 1642.04 91.9705C1643.26 92.4411 1643.82 92.6428 1644.99 95.366C1669.69 152.552 1575.87 363.829 1500.47 533.587C1366.26 835.82 1239.5 1121.29 1382.91 1215.53C1417.36 1238.17 1454.22 1245.92 1492.43 1238.76C1593.27 1219.73 1677.28 1098.5 1766.23 970.161C1853.4 844.359 1952.4 701.782 2027.08 734.14C2061.33 748.916 2082.75 771.373 2092.59 802.79C2122.98 899.797 2040.75 1058.24 2006.47 1111.12C1992.72 1132.37 1999.27 1160.46 2021.13 1173.86C2043 1187.22 2071.92 1180.92 2085.69 1159.67C2091.66 1150.51 2231.22 933.197 2182.25 776.466C2164.54 719.819 2124.05 676.417 2065.13 650.984Z" stroke="#FFFFFF"/>
</svg>
