<svg width="2194" height="1331" fill="none" xmlns="http://www.w3.org/2000/svg"><path opacity=".6" clip-rule="evenodd" d="M2065.13 650.984c-146.66-63.287-263.6 105.261-376.62 268.345-70.89 102.321-151.25 218.271-213.94 230.101-9.07 1.72-21.72 2.21-39.16-9.26-79.18-52.02 59.37-364.057 151.06-570.543 114.71-258.277 183.06-421.059 144.91-509.443-10.85-25.13-30.06-43.486-55.53-53.067C1555-38.235 1416.96 170.37 1163.12 574.35c-109.16 173.692-222.012 353.3-325.057 483.88-141.13 178.85-201.538 184.81-220.901 179.2-90.274-26.52-76.673-147.6-45.596-329.296 28.967-169.371 61.775-361.351-108.858-393.676-292.055-55.353-452.185 363.1-458.882 380.935-8.825 23.617 3.703 49.722 28.015 58.312 24.33 8.572 51.185-3.598 60.027-27.215 1.368-3.631 141.996-362.663 352.913-322.74 75.774 14.372 63.54 118.943 34.383 289.474-30.438 177.966-64.924 379.656 110.883 431.276 12.528 3.68 25.16 5.5 37.982 5.5 157.794-.03 341.976-273.71 615.051-708.247 90.6-144.192 176.19-280.381 251.3-381.255 108.1-145.149 145.04-148.343 147.66-148.527 1.22.47 1.78.672 2.95 3.395 24.7 57.186-69.12 268.463-144.52 438.221-134.21 302.233-260.97 587.703-117.56 681.943 34.45 22.64 71.31 30.39 109.52 23.23 100.84-19.03 184.85-140.26 273.8-268.599 87.17-125.802 186.17-268.379 260.85-236.021 34.25 14.776 55.67 37.233 65.51 68.65 30.39 97.007-51.84 255.45-86.12 308.33-13.75 21.25-7.2 49.34 14.66 62.74 21.87 13.36 50.79 7.06 64.56-14.19 5.97-9.16 145.53-226.473 96.56-383.204-17.71-56.647-58.2-100.049-117.12-125.482z" stroke="#F6F6F6"/></svg>